<svg width="135" height="152" fill="none" xmlns="http://www.w3.org/2000/svg"><path fill-rule="evenodd" clip-rule="evenodd" d="M135 76c0 12.133-2.525 23.603-7.016 33.778H71.719c10.39-15.926 21.094-35.21 21.094-54.89 0-25.322-17.135-46.64-40.434-52.974A60.494 60.494 0 0 1 67.5 0C104.78 0 135 34.026 135 76ZM75.937 54.889c0-20.987-16.999-38-37.968-38C9.91 16.889 0 52.808 0 76c0 41.974 30.22 76 67.5 76 19.991 0 37.953-9.785 50.312-25.333H37.969a968.287 968.287 0 0 1 4.635-5.851c14.837-18.633 33.333-41.862 33.333-65.927Z" fill="#7859CF"/></svg>