<svg width="135" height="152" viewBox="0 0 135 152" fill="none" xmlns="http://www.w3.org/2000/svg">
<path fill-rule="evenodd" clip-rule="evenodd" d="M135 76C135 88.1333 132.475 99.6026 127.984 109.778H71.7188C82.1081 93.8522 92.8125 74.5672 92.8125 54.8889C92.8125 29.5655 75.6778 8.24749 52.379 1.91432C57.2402 0.661671 62.3015 0 67.5001 0C104.779 0 135 34.0264 135 76ZM75.9374 54.8889C75.9374 33.9021 58.9383 16.8889 37.9687 16.8889C9.91131 16.8889 0 52.8078 0 76C0 117.974 30.2208 152 67.4999 152C87.4912 152 105.453 142.215 117.812 126.667H37.9687C39.453 124.773 41.0072 122.821 42.6039 120.816C57.441 102.183 75.9374 78.9544 75.9374 54.8889Z" fill="#7859CF"/>
</svg>
